<svg xmlns="http://www.w3.org/2000/svg" style="display: none;">
  <symbol id="icon-search" viewBox="0 0 24 24" fill="currentColor">
    <path d="M10.5 3a7.5 7.5 0 015.94 12.09l4.24 4.23-1.42 1.42-4.23-4.24A7.5 7.5 0 1110.5 3zm0 2a5.5 5.5 0 100 11 5.5 5.5 0 000-11z"/>
  </symbol>

  <symbol id="icon-user" viewBox="0 0 24 24" fill="currentColor">
    <path d="M12 12a4 4 0 100-8 4 4 0 000 8zm0 2c-4.42 0-8 2.24-8 5v1h16v-1c0-2.76-3.58-5-8-5z"/>
  </symbol>

  <symbol id="icon-ticket" viewBox="0 0 24 24" fill="currentColor">
    <path d="M3 7a2 2 0 012-2h14a2 2 0 012 2v3a2 2 0 000 4v3a2 2 0 01-2 2H5a2 2 0 01-2-2v-3a2 2 0 000-4V7zm6 1v8h2V8H9z"/>
  </symbol>

  <symbol id="icon-calendar" viewBox="0 0 24 24" fill="currentColor">
    <path d="M7 2v2H5a2 2 0 00-2 2v13a2 2 0 002 2h14a2 2 0 002-2V6a2 2 0 00-2-2h-2V2h-2v2H9V2H7zm12 8v9H5v-9h14z"/>
  </symbol>

  <symbol id="icon-pin" viewBox="0 0 24 24" fill="currentColor">
    <path d="M12 2a7 7 0 017 7c0 5.25-7 13-7 13S5 14.25 5 9a7 7 0 017-7zm0 4.5A2.5 2.5 0 1012 11.5 2.5 2.5 0 0012 6.5z"/>
  </symbol>

  <symbol id="icon-sun" viewBox="0 0 24 24" fill="currentColor">
    <path d="M12 17a5 5 0 100-10 5 5 0 000 10zm0-13a1 1 0 011 1v1a1 1 0 11-2 0V5a1 1 0 011-1zm0 14a1 1 0 011 1v1a1 1 0 11-2 0v-1a1 1 0 011-1zM4 11h1a1 1 0 110 2H4a1 1 0 110-2zm15 0h1a1 1 0 110 2h-1a1 1 0 110-2zM5.64 4.22l.7.71a1 1 0 01-1.41 1.41l-.71-.7A1 1 0 015.64 4.22zm12.02 12.02l.71.7a1 1 0 01-1.42 1.42l-.7-.71a1 1 0 011.41-1.41zM18.36 4.22a1 1 0 011.42 1.42l-.71.7a1 1 0 01-1.41-1.41zM6.34 16.24a1 1 0 011.41 1.41l-.7.71a1 1 0 01-1.42-1.42z"/>
  </symbol>

  <symbol id="icon-moon" viewBox="0 0 24 24" fill="currentColor">
    <path d="M20.3 14.9A8.5 8.5 0 019.1 3.7a8.5 8.5 0 1011.2 11.2z"/>
  </symbol>
</svg>
