<svg xmlns="http://www.w3.org/2000/svg" aria-hidden="true" style="display:none">
  <symbol id="icon-compass" viewBox="0 0 16 16">
    <path d="M8 16.016a7.5 7.5 0 0 0 1.962-14.74A1 1 0 0 0 9 0H7a1 1 0 0 0-.962 1.276A7.5 7.5 0 0 0 8 16.016m6.5-7.5a6.5 6.5 0 1 1-13 0 6.5 6.5 0 0 1 13 0"/>
      <path d="m6.94 7.44 4.95-2.83-2.83 4.95-4.949 2.83 2.828-4.95z"/>
  </symbol>
  <symbol id="icon-globe" viewBox="0 0 16 16">
    <path d="M0 8a8 8 0 1 1 16 0A8 8 0 0 1 0 8m7.5-6.923c-.67.204-1.335.82-1.887 1.855q-.215.403-.395.872c.705.157 1.472.257 2.282.287zM4.249 3.539q.214-.577.481-1.078a7 7 0 0 1 .597-.933A7 7 0 0 0 3.051 3.05q.544.277 1.198.49zM3.509 7.5c.036-1.07.188-2.087.436-3.008a9 9 0 0 1-1.565-.667A6.96 6.96 0 0 0 1.018 7.5zm1.4-2.741a12.3 12.3 0 0 0-.4 2.741H7.5V5.091c-.91-.03-1.783-.145-2.591-.332M8.5 5.09V7.5h2.99a12.3 12.3 0 0 0-.399-2.741c-.808.187-1.681.301-2.591.332zM4.51 8.5c.035.987.176 1.914.399 2.741A13.6 13.6 0 0 1 7.5 10.91V8.5zm3.99 0v2.409c.91.03 1.783.145 2.591.332.223-.827.364-1.754.4-2.741zm-3.282 3.696q.18.469.395.872c.552 1.035 1.218 1.65 1.887 1.855V11.91c-.81.03-1.577.13-2.282.287zm.11 2.276a7 7 0 0 1-.598-.933 9 9 0 0 1-.481-1.079 8.4 8.4 0 0 0-1.198.49 7 7 0 0 0 2.276 1.522zm-1.383-2.964A13.4 13.4 0 0 1 3.508 8.5h-2.49a6.96 6.96 0 0 0 1.362 3.675c.47-.258.995-.482 1.565-.667m6.728 2.964a7 7 0 0 0 2.275-1.521 8.4 8.4 0 0 0-1.197-.49 9 9 0 0 1-.481 1.078 7 7 0 0 1-.597.933M8.5 11.909v3.014c.67-.204 1.335-.82 1.887-1.855q.216-.403.395-.872A12.6 12.6 0 0 0 8.5 11.91zm3.555-.401c.57.185 1.095.409 1.565.667A6.96 6.96 0 0 0 14.982 8.5h-2.49a13.4 13.4 0 0 1-.437 3.008M14.982 7.5a6.96 6.96 0 0 0-1.362-3.675c-.47.258-.995.482-1.565.667.248.92.4 1.938.437 3.008zM11.27 2.461q.266.502.482 1.078a8.4 8.4 0 0 0 1.196-.49 7 7 0 0 0-2.275-1.52c.218.283.418.597.597.932m-.488 1.343a8 8 0 0 0-.395-.872C9.835 1.897 9.17 1.282 8.5 1.077V4.09c.81-.03 1.577-.13 2.282-.287z"/>
  </symbol>
  <symbol id="icon-map" viewBox="0 0 16 16">
    <path fill-rule="evenodd" d="M15.817.113A.5.5 0 0 1 16 .5v14a.5.5 0 0 1-.402.49l-5 1a.5.5 0 0 1-.196 0L5.5 15.01l-4.902.98A.5.5 0 0 1 0 15.5v-14a.5.5 0 0 1 .402-.49l5-1a.5.5 0 0 1 .196 0L10.5.99l4.902-.98a.5.5 0 0 1 .415.103M10 1.91l-4-.8v12.98l4 .8zm1 12.98 4-.8V1.11l-4 .8zm-6-.8V1.11l-4 .8v12.98z"/>
  </symbol>
  <symbol id="icon-buildings" viewBox="0 0 16 16">
    <path d="M14.763.075A.5.5 0 0 1 15 .5v15a.5.5 0 0 1-.5.5h-3a.5.5 0 0 1-.5-.5V14h-1v1.5a.5.5 0 0 1-.5.5h-9a.5.5 0 0 1-.5-.5V10a.5.5 0 0 1 .342-.474L6 7.64V4.5a.5.5 0 0 1 .276-.447l8-4a.5.5 0 0 1 .487.022M6 8.694 1 10.36V15h5zM7 15h2v-1.5a.5.5 0 0 1 .5-.5h2a.5.5 0 0 1 .5.5V15h2V1.309l-7 3.5z"/>
      <path d="M2 11h1v1H2zm2 0h1v1H4zm-2 2h1v1H2zm2 0h1v1H4zm4-4h1v1H8zm2 0h1v1h-1zm-2 2h1v1H8zm2 0h1v1h-1zm2-2h1v1h-1zm0 2h1v1h-1zM8 7h1v1H8zm2 0h1v1h-1zm2 0h1v1h-1zM8 5h1v1H8zm2 0h1v1h-1zm2 0h1v1h-1zm0-2h1v1h-1z"/>
  </symbol>
  <symbol id="icon-people" viewBox="0 0 16 16">
    <path d="M15 14s1 0 1-1-1-4-5-4-5 3-5 4 1 1 1 1zm-7.978-1L7 12.996c.001-.264.167-1.03.76-1.72C8.312 10.629 9.282 10 11 10c1.717 0 2.687.63 3.24 1.276.593.69.758 1.457.76 1.72l-.008.002-.014.002zM11 7a2 2 0 1 0 0-4 2 2 0 0 0 0 4m3-2a3 3 0 1 1-6 0 3 3 0 0 1 6 0M6.936 9.28a6 6 0 0 0-1.23-.247A7 7 0 0 0 5 9c-4 0-5 3-5 4q0 1 1 1h4.216A2.24 2.24 0 0 1 5 13c0-1.01.377-2.042 1.09-2.904.243-.294.526-.569.846-.816M4.92 10A5.5 5.5 0 0 0 4 13H1c0-.26.164-1.03.76-1.724.545-.636 1.492-1.256 3.16-1.275ZM1.5 5.5a3 3 0 1 1 6 0 3 3 0 0 1-6 0m3-2a2 2 0 1 0 0 4 2 2 0 0 0 0-4"/>
  </symbol>
  <symbol id="icon-moon-stars-fill" viewBox="0 0 16 16">
    <path d="M6 .278a.77.77 0 0 1 .08.858 7.2 7.2 0 0 0-.878 3.46c0 4.021 3.278 7.277 7.318 7.277q.792-.001 1.533-.16a.79.79 0 0 1 .81.316.73.73 0 0 1-.031.893A8.35 8.35 0 0 1 8.344 16C3.734 16 0 12.286 0 7.71 0 4.266 2.114 1.312 5.124.06A.75.75 0 0 1 6 .278"/>
      <path d="M10.794 3.148a.217.217 0 0 1 .412 0l.387 1.162c.173.518.579.924 1.097 1.097l1.162.387a.217.217 0 0 1 0 .412l-1.162.387a1.73 1.73 0 0 0-1.097 1.097l-.387 1.162a.217.217 0 0 1-.412 0l-.387-1.162A1.73 1.73 0 0 0 9.31 6.593l-1.162-.387a.217.217 0 0 1 0-.412l1.162-.387a1.73 1.73 0 0 0 1.097-1.097zM13.863.099a.145.145 0 0 1 .274 0l.258.774c.115.346.386.617.732.732l.774.258a.145.145 0 0 1 0 .274l-.774.258a1.16 1.16 0 0 0-.732.732l-.258.774a.145.145 0 0 1-.274 0l-.258-.774a1.16 1.16 0 0 0-.732-.732l-.774-.258a.145.145 0 0 1 0-.274l.774-.258c.346-.115.617-.386.732-.732z"/>
  </symbol>
  <symbol id="icon-brightness-high-fill" viewBox="0 0 16 16">
    <path d="M12 8a4 4 0 1 1-8 0 4 4 0 0 1 8 0M8 0a.5.5 0 0 1 .5.5v2a.5.5 0 0 1-1 0v-2A.5.5 0 0 1 8 0m0 13a.5.5 0 0 1 .5.5v2a.5.5 0 0 1-1 0v-2A.5.5 0 0 1 8 13m8-5a.5.5 0 0 1-.5.5h-2a.5.5 0 0 1 0-1h2a.5.5 0 0 1 .5.5M3 8a.5.5 0 0 1-.5.5h-2a.5.5 0 0 1 0-1h2A.5.5 0 0 1 3 8m10.657-5.657a.5.5 0 0 1 0 .707l-1.414 1.415a.5.5 0 1 1-.707-.708l1.414-1.414a.5.5 0 0 1 .707 0m-9.193 9.193a.5.5 0 0 1 0 .707L3.05 13.657a.5.5 0 0 1-.707-.707l1.414-1.414a.5.5 0 0 1 .707 0m9.193 2.121a.5.5 0 0 1-.707 0l-1.414-1.414a.5.5 0 0 1 .707-.707l1.414 1.414a.5.5 0 0 1 0 .707M4.464 4.465a.5.5 0 0 1-.707 0L2.343 3.05a.5.5 0 1 1 .707-.707l1.414 1.414a.5.5 0 0 1 0 .708"/>
  </symbol>
  <symbol id="icon-clock" viewBox="0 0 16 16">
    <path d="M8 3.5a.5.5 0 0 0-1 0V9a.5.5 0 0 0 .252.434l3.5 2a.5.5 0 0 0 .496-.868L8 8.71z"/>
      <path d="M8 16A8 8 0 1 0 8 0a8 8 0 0 0 0 16m7-8A7 7 0 1 1 1 8a7 7 0 0 1 14 0"/>
  </symbol>
  <symbol id="icon-currency-ruble" viewBox="0 0 16 16">
    <path fill-rule="evenodd" d="M11 15a4 4 0 1 0 0-8 4 4 0 0 0 0 8m5-4a5 5 0 1 1-10 0 5 5 0 0 1 10 0"/>
      <path d="M9.438 11.944c.047.596.518 1.06 1.363 1.116v.44h.375v-.443c.875-.061 1.386-.529 1.386-1.207 0-.618-.39-.936-1.09-1.1l-.296-.07v-1.2c.376.043.614.248.671.532h.658c-.047-.575-.54-1.024-1.329-1.073V8.5h-.375v.45c-.747.073-1.255.522-1.255 1.158 0 .562.378.92 1.007 1.066l.248.061v1.272c-.384-.058-.639-.27-.696-.563h-.668zm1.36-1.354c-.369-.085-.569-.26-.569-.522 0-.294.216-.514.572-.578v1.1zm.432.746c.449.104.655.272.655.569 0 .339-.257.571-.709.614v-1.195z"/>
      <path d="M1 0a1 1 0 0 0-1 1v8a1 1 0 0 0 1 1h4.083q.088-.517.258-1H3a2 2 0 0 0-2-2V3a2 2 0 0 0 2-2h10a2 2 0 0 0 2 2v3.528c.38.34.717.728 1 1.154V1a1 1 0 0 0-1-1z"/>
      <path d="M9.998 5.083 10 5a2 2 0 1 0-3.132 1.65 6 6 0 0 1 3.13-1.567"/>
  </symbol>
  <symbol id="icon-sun" viewBox="0 0 16 16">
    <path d="M8 11a3 3 0 1 1 0-6 3 3 0 0 1 0 6m0 1a4 4 0 1 0 0-8 4 4 0 0 0 0 8M8 0a.5.5 0 0 1 .5.5v2a.5.5 0 0 1-1 0v-2A.5.5 0 0 1 8 0m0 13a.5.5 0 0 1 .5.5v2a.5.5 0 0 1-1 0v-2A.5.5 0 0 1 8 13m8-5a.5.5 0 0 1-.5.5h-2a.5.5 0 0 1 0-1h2a.5.5 0 0 1 .5.5M3 8a.5.5 0 0 1-.5.5h-2a.5.5 0 0 1 0-1h2A.5.5 0 0 1 3 8m10.657-5.657a.5.5 0 0 1 0 .707l-1.414 1.415a.5.5 0 1 1-.707-.708l1.414-1.414a.5.5 0 0 1 .707 0m-9.193 9.193a.5.5 0 0 1 0 .707L3.05 13.657a.5.5 0 0 1-.707-.707l1.414-1.414a.5.5 0 0 1 .707 0m9.193 2.121a.5.5 0 0 1-.707 0l-1.414-1.414a.5.5 0 0 1 .707-.707l1.414 1.414a.5.5 0 0 1 0 .707M4.464 4.465a.5.5 0 0 1-.707 0L2.343 3.05a.5.5 0 1 1 .707-.707l1.414 1.414a.5.5 0 0 1 0 .708"/>
  </symbol>
  <symbol id="icon-ticket-perforated" viewBox="0 0 16 16">
    <path d="M4 4.85v.9h1v-.9zm7 0v.9h1v-.9zm-7 1.8v.9h1v-.9zm7 0v.9h1v-.9zm-7 1.8v.9h1v-.9zm7 0v.9h1v-.9zm-7 1.8v.9h1v-.9zm7 0v.9h1v-.9z"/>
      <path d="M1.5 3A1.5 1.5 0 0 0 0 4.5V6a.5.5 0 0 0 .5.5 1.5 1.5 0 1 1 0 3 .5.5 0 0 0-.5.5v1.5A1.5 1.5 0 0 0 1.5 13h13a1.5 1.5 0 0 0 1.5-1.5V10a.5.5 0 0 0-.5-.5 1.5 1.5 0 0 1 0-3A.5.5 0 0 0 16 6V4.5A1.5 1.5 0 0 0 14.5 3zM1 4.5a.5.5 0 0 1 .5-.5h13a.5.5 0 0 1 .5.5v1.05a2.5 2.5 0 0 0 0 4.9v1.05a.5.5 0 0 1-.5.5h-13a.5.5 0 0 1-.5-.5v-1.05a2.5 2.5 0 0 0 0-4.9z"/>
  </symbol>
  <symbol id="icon-train-front" viewBox="0 0 16 16">
    <path d="M5.621 1.485c1.815-.454 2.943-.454 4.758 0 .784.196 1.743.673 2.527 1.119.688.39 1.094 1.148 1.094 1.979V13.5a1.5 1.5 0 0 1-1.5 1.5h-9A1.5 1.5 0 0 1 2 13.5V4.583c0-.831.406-1.588 1.094-1.98.784-.445 1.744-.922 2.527-1.118m5-.97C8.647.02 7.353.02 5.38.515c-.924.23-1.982.766-2.78 1.22C1.566 2.322 1 3.432 1 4.582V13.5A2.5 2.5 0 0 0 3.5 16h9a2.5 2.5 0 0 0 2.5-2.5V4.583c0-1.15-.565-2.26-1.6-2.849-.797-.453-1.855-.988-2.779-1.22ZM5 13a1 1 0 1 1-2 0 1 1 0 0 1 2 0m0 0a1 1 0 1 1 2 0 1 1 0 0 1-2 0m7 1a1 1 0 1 0-1-1 1 1 0 1 0-2 0 1 1 0 0 0 2 0 1 1 0 0 0 1 1M4.5 5a.5.5 0 0 0-.5.5v2a.5.5 0 0 0 .5.5h3V5zm4 0v3h3a.5.5 0 0 0 .5-.5v-2a.5.5 0 0 0-.5-.5zM3 5.5A1.5 1.5 0 0 1 4.5 4h7A1.5 1.5 0 0 1 13 5.5v2A1.5 1.5 0 0 1 11.5 9h-7A1.5 1.5 0 0 1 3 7.5zM6.5 2a.5.5 0 0 0 0 1h3a.5.5 0 0 0 0-1z"/>
  </symbol>
  <symbol id="icon-star-fill" viewBox="0 0 16 16">
    <path d="M3.612 15.443c-.386.198-.824-.149-.746-.592l.83-4.73L.173 6.765c-.329-.314-.158-.888.283-.95l4.898-.696L7.538.792c.197-.39.73-.39.927 0l2.184 4.327 4.898.696c.441.062.612.636.282.95l-3.522 3.356.83 4.73c.078.443-.36.79-.746.592L8 13.187l-4.389 2.256z"/>
  </symbol>
  <symbol id="icon-star-half" viewBox="0 0 16 16">
    <path d="M5.354 5.119 7.538.792A.52.52 0 0 1 8 .5c.183 0 .366.097.465.292l2.184 4.327 4.898.696A.54.54 0 0 1 16 6.32a.55.55 0 0 1-.17.445l-3.523 3.356.83 4.73c.078.443-.36.79-.746.592L8 13.187l-4.389 2.256a.5.5 0 0 1-.146.05c-.342.06-.668-.254-.6-.642l.83-4.73L.173 6.765a.55.55 0 0 1-.172-.403.6.6 0 0 1 .085-.302.51.51 0 0 1 .37-.245zM8 12.027a.5.5 0 0 1 .232.056l3.686 1.894-.694-3.957a.56.56 0 0 1 .162-.505l2.907-2.77-4.052-.576a.53.53 0 0 1-.393-.288L8.001 2.223 8 2.226z"/>
  </symbol>
  <symbol id="icon-star" viewBox="0 0 16 16">
    <path d="M2.866 14.85c-.078.444.36.791.746.593l4.39-2.256 4.389 2.256c.386.198.824-.149.746-.592l-.83-4.73 3.522-3.356c.33-.314.16-.888-.282-.95l-4.898-.696L8.465.792a.513.513 0 0 0-.927 0L5.354 5.12l-4.898.696c-.441.062-.612.636-.283.95l3.523 3.356-.83 4.73zm4.905-2.767-3.686 1.894.694-3.957a.56.56 0 0 0-.163-.505L1.71 6.745l4.052-.576a.53.53 0 0 0 .393-.288L8 2.223l1.847 3.658a.53.53 0 0 0 .393.288l4.052.575-2.906 2.77a.56.56 0 0 0-.163.506l.694 3.957-3.686-1.894a.5.5 0 0 0-.461 0z"/>
  </symbol>
  <symbol id="icon-link-45deg" viewBox="0 0 16 16">
    <path d="M4.715 6.542 3.343 7.914a3 3 0 1 0 4.243 4.243l1.828-1.829A3 3 0 0 0 8.586 5.5L8 6.086a1 1 0 0 0-.154.199 2 2 0 0 1 .861 3.337L6.88 11.45a2 2 0 1 1-2.83-2.83l.793-.792a4 4 0 0 1-.128-1.287z"/>
      <path d="M6.586 4.672A3 3 0 0 0 7.414 9.5l.775-.776a2 2 0 0 1-.896-3.346L9.12 3.55a2 2 0 1 1 2.83 2.83l-.793.792c.112.42.155.855.128 1.287l1.372-1.372a3 3 0 1 0-4.243-4.243z"/>
  </symbol>
  <symbol id="icon-clipboard" viewBox="0 0 16 16">
    <path d="M4 1.5H3a2 2 0 0 0-2 2V14a2 2 0 0 0 2 2h10a2 2 0 0 0 2-2V3.5a2 2 0 0 0-2-2h-1v1h1a1 1 0 0 1 1 1V14a1 1 0 0 1-1 1H3a1 1 0 0 1-1-1V3.5a1 1 0 0 1 1-1h1z"/>
      <path d="M9.5 1a.5.5 0 0 1 .5.5v1a.5.5 0 0 1-.5.5h-3a.5.5 0 0 1-.5-.5v-1a.5.5 0 0 1 .5-.5zm-3-1A1.5 1.5 0 0 0 5 1.5v1A1.5 1.5 0 0 0 6.5 4h3A1.5 1.5 0 0 0 11 2.5v-1A1.5 1.5 0 0 0 9.5 0z"/>
  </symbol>
  <symbol id="icon-pencil-square" viewBox="0 0 16 16">
    <path d="M15.502 1.94a.5.5 0 0 1 0 .706L14.459 3.69l-2-2L13.502.646a.5.5 0 0 1 .707 0l1.293 1.293zm-1.75 2.456-2-2L4.939 9.21a.5.5 0 0 0-.121.196l-.805 2.414a.25.25 0 0 0 .316.316l2.414-.805a.5.5 0 0 0 .196-.12l6.813-6.814z"/>
      <path fill-rule="evenodd" d="M1 13.5A1.5 1.5 0 0 0 2.5 15h11a1.5 1.5 0 0 0 1.5-1.5v-6a.5.5 0 0 0-1 0v6a.5.5 0 0 1-.5.5h-11a.5.5 0 0 1-.5-.5v-11a.5.5 0 0 1 .5-.5H9a.5.5 0 0 0 0-1H2.5A1.5 1.5 0 0 0 1 2.5z"/>
  </symbol>
  <symbol id="icon-chat-left-text" viewBox="0 0 16 16">
    <path d="M14 1a1 1 0 0 1 1 1v8a1 1 0 0 1-1 1H4.414A2 2 0 0 0 3 11.586l-2 2V2a1 1 0 0 1 1-1zM2 0a2 2 0 0 0-2 2v12.793a.5.5 0 0 0 .854.353l2.853-2.853A1 1 0 0 1 4.414 12H14a2 2 0 0 0 2-2V2a2 2 0 0 0-2-2z"/>
      <path d="M3 3.5a.5.5 0 0 1 .5-.5h9a.5.5 0 0 1 0 1h-9a.5.5 0 0 1-.5-.5M3 6a.5.5 0 0 1 .5-.5h9a.5.5 0 0 1 0 1h-9A.5.5 0 0 1 3 6m0 2.5a.5.5 0 0 1 .5-.5h5a.5.5 0 0 1 0 1h-5a.5.5 0 0 1-.5-.5"/>
  </symbol>
  <symbol id="icon-person" viewBox="0 0 16 16">
    <path d="M8 8a3 3 0 1 0 0-6 3 3 0 0 0 0 6m2-3a2 2 0 1 1-4 0 2 2 0 0 1 4 0m4 8c0 1-1 1-1 1H3s-1 0-1-1 1-4 6-4 6 3 6 4m-1-.004c-.001-.246-.154-.986-.832-1.664C11.516 10.68 10.289 10 8 10s-3.516.68-4.168 1.332c-.678.678-.83 1.418-.832 1.664z"/>
  </symbol>
  <symbol id="icon-envelope" viewBox="0 0 16 16">
    <path d="M0 4a2 2 0 0 1 2-2h12a2 2 0 0 1 2 2v8a2 2 0 0 1-2 2H2a2 2 0 0 1-2-2zm2-1a1 1 0 0 0-1 1v.217l7 4.2 7-4.2V4a1 1 0 0 0-1-1zm13 2.383-4.708 2.825L15 11.105zm-.034 6.876-5.64-3.471L8 9.583l-1.326-.795-5.64 3.47A1 1 0 0 0 2 13h12a1 1 0 0 0 .966-.741M1 11.105l4.708-2.897L1 5.383z"/>
  </symbol>
  <symbol id="icon-search" viewBox="0 0 16 16">
    <path d="M11.742 10.344a6.5 6.5 0 1 0-1.397 1.398h-.001q.044.06.098.115l3.85 3.85a1 1 0 0 0 1.415-1.414l-3.85-3.85a1 1 0 0 0-.115-.1zM12 6.5a5.5 5.5 0 1 1-11 0 5.5 5.5 0 0 1 11 0"/>
  </symbol>
  <symbol id="icon-bookmark-check" viewBox="0 0 16 16">
    <path fill-rule="evenodd" d="M10.854 5.146a.5.5 0 0 1 0 .708l-3 3a.5.5 0 0 1-.708 0l-1.5-1.5a.5.5 0 1 1 .708-.708L7.5 7.793l2.646-2.647a.5.5 0 0 1 .708 0"/>
      <path d="M2 2a2 2 0 0 1 2-2h8a2 2 0 0 1 2 2v13.5a.5.5 0 0 1-.777.416L8 13.101l-5.223 2.815A.5.5 0 0 1 2 15.5zm2-1a1 1 0 0 0-1 1v12.566l4.723-2.482a.5.5 0 0 1 .554 0L13 14.566V2a1 1 0 0 0-1-1z"/>
  </symbol>
  <symbol id="icon-circle" viewBox="0 0 16 16">
    <path d="M8 15A7 7 0 1 1 8 1a7 7 0 0 1 0 14m0 1A8 8 0 1 0 8 0a8 8 0 0 0 0 16"/>
  </symbol>
</svg>
