<svg xmlns="http://www.w3.org/2000/svg" aria-hidden="true">
  <symbol id="icon-ticket" viewBox="0 0 24 24">
    <path fill="currentColor" d="M20 12c0-1.1.9-2 2-2V6c0-1.1-.9-2-2-2H4C2.9 4 2 4.9 2 6v4c1.1 0 2 .9 2 2s-.9 2-2 2v4c0 1.1.9 2 2 2h16c1.1 0 2-.9 2-2v-4c-1.1 0-2-.9-2-2zm-2 8H6v-2h12v2zm0-4H6v-4h12v4zm0-6H6V6h12v4z"/>
  </symbol>
  <symbol id="icon-calendar" viewBox="0 0 24 24">
    <path fill="currentColor" d="M19 4h-1V2h-2v2H8V2H6v2H5c-1.11 0-1.99.9-1.99 2L3 20c0 1.1.89 2 2 2h14c1.1 0 2-.9 2-2V6c0-1.1-.9-2-2-2zm0 16H5V10h14v10zM9 14H7v-2h2v2zm4 0h-2v-2h2v2zm4 0h-2v-2h2v2zm-8 4H7v-2h2v2zm4 0h-2v-2h2v2zm4 0h-2v-2h2v2z"/>
  </symbol>
  <symbol id="icon-building" viewBox="0 0 24 24">
    <path fill="currentColor" d="M12 7V3H2v18h20V7H12zM6 19H4v-2h2v2zm0-4H4v-2h2v2zm0-4H4V9h2v2zm0-4H4V5h2v2zm4 12H8v-2h2v2zm0-4H8v-2h2v2zm0-4H8V9h2v2zm0-4H8V5h2v2zm10 12h-8v-2h2v-2h-2v-2h2v-2h-2V9h8v10zm-2-8h-2v2h2v-2zm0 4h-2v2h2v-2z"/>
  </symbol>
  <symbol id="icon-user" viewBox="0 0 24 24">
    <circle fill="currentColor" cx="12" cy="9" r="4"/>
    <path fill="currentColor" d="M4 20.5c0-3.5 3.5-6 8-6s8 2.5 8 6V22H4v-1.5z"/>
  </symbol>
  <symbol id="icon-search" viewBox="0 0 24 24">
    <path fill="currentColor" d="M15.5 14h-.79l-.28-.27A6.471 6.471 0 0 0 16 9.5 6.5 6.5 0 1 0 9.5 16c1.61 0 3.09-.59 4.23-1.57l.27.28v.79l5 4.99L20.49 19l-4.99-5zm-6 0C7.01 14 5 11.99 5 9.5S7.01 5 9.5 5 14 7.01 14 9.5 11.99 14 9.5 14z"/>
  </symbol>
</svg>
