<svg xmlns="http://www.w3.org/2000/svg">
  <symbol id="icon-site-logo" viewBox="0 0 64 64">
    <circle cx="32" cy="32" r="26" fill="none" stroke="currentColor" stroke-width="4"/>
    <path d="M20 38V26l12-7 12 7v12l-12 7z" fill="none" stroke="currentColor" stroke-width="3.2" stroke-linejoin="round"/>
    <circle cx="32" cy="32" r="3.2" fill="currentColor"/>
    <path d="M32 22v7M32 35v7M24 27.5l6 3.5M34 33l6 3.5M24 36.5l6-3.5M34 31l6-3.5" fill="none" stroke="currentColor" stroke-width="2.4" stroke-linecap="round"/>
  </symbol>

  <symbol id="icon-avatar-profile" viewBox="0 0 64 64">
    <circle cx="32" cy="32" r="30" fill="currentColor" fill-opacity="0.14"/>
    <circle cx="32" cy="24" r="10" fill="none" stroke="currentColor" stroke-width="4"/>
    <path d="M16 50c1.8-8.6 8.5-14 16-14s14.2 5.4 16 14" fill="none" stroke="currentColor" stroke-width="4" stroke-linecap="round"/>
  </symbol>

  <symbol id="icon-avatar-model" viewBox="0 0 64 64">
    <ellipse cx="32" cy="17" rx="13" ry="6" fill="none" stroke="currentColor" stroke-width="3.6"/>
    <path d="M19 17v16c0 3.2 5.8 6 13 6s13-2.8 13-6V17" fill="none" stroke="currentColor" stroke-width="3.6"/>
    <path d="M19 25c0 3.2 5.8 6 13 6s13-2.8 13-6" fill="none" stroke="currentColor" stroke-width="3.2"/>
    <circle cx="50" cy="44" r="8" fill="none" stroke="currentColor" stroke-width="3.2"/>
    <path d="M50 40v8M46 44h8" stroke="currentColor" stroke-width="2.4" stroke-linecap="round"/>
  </symbol>
</svg>
