<svg xmlns="http://www.w3.org/2000/svg">
  <symbol id="user" viewBox="0 0 24 24">
    <g fill="none" stroke="currentColor" stroke-width="2"><circle cx="12" cy="7" r="4"/><path d="M4 22v-3a8 8 0 0 1 16 0v3"/></g>
  </symbol>
  <symbol id="search" viewBox="0 0 24 24">
    <g fill="none" stroke="currentColor" stroke-width="2"><circle cx="10" cy="10" r="7"/><path d="m15 15 7 7"/></g>
  </symbol>
  <symbol id="model" viewBox="0 0 24 24">
    <path fill="none" stroke="currentColor" stroke-width="2" d="m12 2 9 5v10l-9 5-9-5V7Zm0 10v10M3 7l9 5 9-5"/>
  </symbol>
  <symbol id="file" viewBox="0 0 24 24">
    <path fill="none" stroke="currentColor" stroke-width="2" d="M14 2H4v20h16V8Zm0 0v6h6M8 13h8M8 17h8"/>
  </symbol>
  <symbol id="logout" viewBox="0 0 24 24">
    <path fill="none" stroke="currentColor" stroke-width="2" d="M10 3H3v18h7m5-15 6 6-6 6M8 12h13"/>
  </symbol>
</svg>
