<svg xmlns="http://www.w3.org/2000/svg" style="display: none;">
  <symbol id="icon-user" viewBox="0 0 24 24">
    <path d="M12 12a5 5 0 1 0-5-5a5 5 0 0 0 5 5Zm0 2c-4.418 0-8 2.239-8 5v1h16v-1c0-2.761-3.582-5-8-5Z" fill="currentColor"/>
  </symbol>

  <symbol id="icon-ticket" viewBox="0 0 24 24">
    <path d="M3 8a2 2 0 0 0 2-2h14a2 2 0 0 0 2 2v3a2 2 0 0 0 0 4v3a2 2 0 0 0-2 2H5a2 2 0 0 0-2-2v-3a2 2 0 0 0 0-4Zm6 0v8m6-8v8" stroke="currentColor" stroke-width="2" fill="none" stroke-linecap="round"/>
  </symbol>

  <symbol id="icon-search" viewBox="0 0 24 24">
    <path d="M11 4a7 7 0 1 0 4.9 12l4.1 4.1l1.4-1.4l-4.1-4.1A7 7 0 0 0 11 4Z" fill="currentColor"/>
  </symbol>

  <symbol id="icon-chart" viewBox="0 0 24 24">
    <path d="M5 19V10m7 9V5m7 14v-7" stroke="currentColor" stroke-width="2" fill="none" stroke-linecap="round"/>
    <path d="M3 21h18" stroke="currentColor" stroke-width="2" fill="none" stroke-linecap="round"/>
  </symbol>

  <symbol id="icon-moon" viewBox="0 0 24 24">
    <path d="M14 3a8.5 8.5 0 1 0 7 13.3A9 9 0 0 1 14 3Z" fill="currentColor"/>
  </symbol>
</svg>