<svg xmlns="http://www.w3.org/2000/svg" viewBox="0 0 1600 900">
  <defs>
    <linearGradient id="bg" x1="0" x2="1" y1="0" y2="1">
      <stop offset="0" stop-color="#e7f1ff"/>
      <stop offset="1" stop-color="#fff6e8"/>
    </linearGradient>
  </defs>
  <rect width="1600" height="900" fill="url(#bg)"/>
  <rect y="690" width="1600" height="210" fill="#d9e7f3"/>
  <path d="M240 690V360h220v330" fill="#b65a3a"/>
  <path d="M350 360v-110" stroke="#7b3a22" stroke-width="20"/>
  <path d="M310 260h80l-40-50Z" fill="#7b3a22"/>
  <path d="M580 690V300h280v390" fill="#d26c48"/>
  <path d="M720 300v-140" stroke="#83422a" stroke-width="24"/>
  <path d="M675 170h90l-45-56Z" fill="#83422a"/>
  <rect x="980" y="420" width="420" height="270" rx="18" fill="#5fb3de"/>
  <path d="M1000 500h380" stroke="#d6f2ff" stroke-width="10" stroke-dasharray="22 18"/>
  <path d="M1060 600c40-40 80-40 120 0M1220 600c40-40 80-40 120 0" fill="none" stroke="#ffffff" stroke-width="10" stroke-linecap="round"/>
  <text x="90" y="120" fill="#7b3a22" font-family="Manrope, Arial, sans-serif" font-size="58" font-weight="700">КАЛИНИНГРАД</text>
  <text x="90" y="185" fill="#8e5c45" font-family="Manrope, Arial, sans-serif" font-size="28">Европейская архитектура • остров Канта • Балтика</text>
</svg>
